<?xml version="1.0" encoding="UTF-8"?>
<svg id="_图层_1" data-name="图层 1" xmlns="http://www.w3.org/2000/svg" viewBox="0 0 3840 1360">
  <defs>
    <style>
      .cls-1 {
        fill: #fff;
      }
    </style>
  </defs>
  <g>
    <path class="cls-1" d="M193.78,336.42c0,27.4-10.37,60.68-37,60.68s-37.78-33.28-37.78-60.68,10.77-60.48,37.78-60.48,37,34.45,37,60.48ZM156.79,280.44c-20.94,0-26.42,28.97-26.42,56.18s5.48,56.18,26.62,56.18,25.84-29.56,25.84-56.18-5.68-56.18-25.84-56.18h-.2Z"/>
    <path class="cls-1" d="M232.34,272.41h24.86l51.67,103.74,51.87-103.74h28.19v2.74c-18.2,1.76-19.96,3.72-19.18,23.29l1.37,69.49c.59,20.16,1.37,22.71,19.77,24.27v2.74h-47.96v-2.74c17.23-1.37,17.81-3.92,17.62-24.27l-.78-82.21h-.78l-53.04,107.07h-1.76l-48.15-100.41h-.39l-2.54,52.85c-.59,9.2-.78,15.85-.78,21.14,0,18.79,1.96,24.08,20.16,25.84v2.74h-47.17v-2.74c12.14-.98,16.25-4.31,17.81-12.14,1.37-5.87,2.94-17.62,4.31-37.78l2.74-35.82c.2-5.28.39-9.59.39-13.11,0-13.9-3.33-16.44-18.2-18.2v-2.74Z"/>
    <path class="cls-1" d="M514.21,409.63v9.79h-97.87v-9.79h97.87Z"/>
    <path class="cls-1" d="M541.42,392.21c16.83-.78,18.4-4.11,18.4-19.57v-77.9c0-15.66,0-18.6-17.22-19.38v-2.94h46.39c12.33,0,42.67,1.57,42.67,34.06,0,28.58-27.21,40.32-45.61,38.37l-15.66-4.31v32.49c0,15.27,1.37,18.01,21.34,19.18v2.74h-50.31v-2.74ZM570.38,336.23c2.15.98,7.44,2.94,16.64,2.94,17.42,0,31.71-9,31.71-31.71,0-21.34-12.33-31.12-36.41-31.12-5.29,0-8.22,0-9.98.39-1.37.2-1.96.78-1.96,4.89v54.61Z"/>
    <path class="cls-1" d="M742.44,392.21c18.2-1.76,19.38-3.92,19.38-17.03v-74.97c0-8.42-.78-9.79-9.98-10.77l-8.42-.98v-2.94c12.14-2.15,21.92-5.68,27.99-9.59v99.24c0,13.11,1.37,15.27,19.57,17.03v2.74h-48.54v-2.74Z"/>
    <path class="cls-1" d="M912.34,336.42c0,27.4-10.37,60.68-37,60.68s-37.78-33.28-37.78-60.68,10.77-60.48,37.78-60.48,37,34.45,37,60.48ZM875.34,280.44c-20.94,0-26.42,28.97-26.42,56.18s5.48,56.18,26.62,56.18,25.84-29.56,25.84-56.18-5.68-56.18-25.84-56.18h-.2Z"/>
    <path class="cls-1" d="M983,394.95c-3.52,1.96-5.68,2.15-8.03,2.15-10.96,0-16.25-7.83-16.25-21.14v-56.18h-14.09l-.59-2.15,5.29-4.11h9.4v-10.77l6.66-13.31,2.74-.2v24.27h23.49c.39.78.59,1.57.59,2.35,0,1.37-.59,2.74-1.96,3.92h-22.12v50.89c0,15.85,5.29,19.18,11.74,19.18s11.35-2.74,13.51-3.91l1.57,2.94-11.94,6.07Z"/>
    <path class="cls-1" d="M1017.25,392.21c11.94-.78,14.09-3.72,14.09-15.85v-92c0-12.33-1.17-13.11-14.68-15.66v-2.15c8.81-1.57,18.79-4.5,24.08-6.66v66.55c7.83-8.22,18.99-15.07,30.54-15.07,15.07,0,26.23,9.79,26.23,32.3v32.69c0,12.33,2.15,15.07,14.09,15.85v2.74h-38.36v-2.74c13.11-.78,14.88-3.72,14.88-17.03v-26.82c0-18.4-5.48-28.19-24.08-28.19-9.2.59-17.81,4.5-23.29,11.35v43.65c0,13.31,1.96,16.25,15.46,17.03v2.74h-38.76l-.2-2.74Z"/>
    <path class="cls-1" d="M1280.91,392.21c11.16-1.57,15.27-2.74,15.27-7.44,0-5.09-5.87-20.36-13.11-38.36h-45.22c-1.96,3.72-11.74,30.14-11.74,36.21,0,6.66,5.29,7.83,16.25,9.59v2.74h-44.43v-2.74c13.7-2.74,16.25-4.5,23.49-22.12l42.48-99.63,2.35-.98,13.12,36.21c9,24.47,17.81,48.94,25.25,67.73,5.87,14.48,7.44,16.64,21.14,18.79v2.74h-44.82v-2.74ZM1261.92,287.68c-7.83,17.42-15.46,36.02-21.73,52.46h41.11l-18.99-52.46h-.39Z"/>
    <path class="cls-1" d="M1354.31,392.21c11.55-.78,17.03-4.7,18.59-10.18,1.57-5.87,2.15-16.64,2.15-36.41v-42.48c0-17.42-.98-16.44-4.5-20.75-3.33-3.92-7.44-6.07-17.81-7.24v-2.74h24.08l90.43,103.35h.59v-55.79c0-38.17-.2-43.26-23.1-44.82v-2.74h48.54v2.74c-11.35.98-16.25,4.7-18.01,10.37-1.76,6.07-1.96,16.05-1.96,34.45v76.34h-2.15l-90.24-102.76h-.39v52.07c.2,19.77.39,30.54,1.76,36.02,1.76,6.07,7.63,9.59,20.75,10.57v2.74h-48.74v-2.74Z"/>
    <path class="cls-1" d="M1522.26,392.21c11.55-.78,17.03-4.7,18.6-10.18,1.57-5.87,2.15-16.64,2.15-36.41v-42.48c0-17.42-.98-16.44-4.5-20.75-3.33-3.92-7.44-6.07-17.81-7.24v-2.74h24.08l90.43,103.35h.59v-55.79c0-38.17-.2-43.26-23.1-44.82v-2.74h48.54v2.74c-11.35.98-16.25,4.7-18.01,10.37-1.76,6.07-1.96,16.05-1.96,34.45v76.34h-2.15l-90.24-102.76h-.39v52.07c.2,19.77.39,30.54,1.76,36.02,1.76,6.07,7.63,9.59,20.75,10.57v2.74h-48.74v-2.74Z"/>
    <path class="cls-1" d="M1691.57,392.21c17.03-.78,18.59-4.11,18.59-19.57v-77.9c0-15.27-1.57-18.6-18.59-19.57v-2.74h47.37v2.74c-16.83.98-18.59,4.31-18.59,19.57v77.9c0,15.46,1.76,18.79,18.59,19.57v2.74h-47.37v-2.74Z"/>
    <path class="cls-1" d="M1901.8,275.15c-14.09,1.96-15.46,4.7-24.08,21.73-3.33,5.68-28.77,60.88-44.63,100.22h-2.54c-12.72-35.04-27.21-69.49-41.11-104.53-5.48-13.9-8.42-16.64-20.36-17.42v-2.74h42.28v2.74c-9.79,1.17-14.09,1.76-14.09,6.46,0,1.76.59,3.92,1.76,6.85,4.31,11.35,19.38,49.91,36.02,89.84h.2c3.92-8.22,37.58-84.17,37.58-94.93,0-5.87-4.7-6.46-14.88-8.22v-2.74h43.85v2.74Z"/>
    <path class="cls-1" d="M1930.96,392.21c18.4-.98,19.77-4.31,19.77-19.38v-76.73c0-16.83-1.57-20.16-17.81-20.94v-2.74h85.15c0,6.85.98,18.4,1.76,29.95l-3.33.59c-4.11-19.97-7.83-25.84-31.51-25.84h-18.4c-5.29,0-5.48.39-5.48,5.48v45.8h22.9c15.46,0,19.18-1.96,22.12-15.07h3.33v36.41h-3.33c-3.13-15.07-7.24-15.85-22.12-15.85h-22.9v38.17c0,18.4,8.03,18.4,24.27,18.4,11.94,0,23.68-.2,29.95-7.44,3.13-3.72,8.02-10.57,10.96-19.38h3.33c-1.76,7.24-5.48,24.66-7.05,31.32h-91.61v-2.74Z"/>
    <path class="cls-1" d="M2061.52,392.21c17.42-.78,18.99-4.11,18.99-19.57v-78.49c0-15.46-1.57-17.62-18.01-18.79v-2.94h46.19c19.38,0,40.52,5.87,40.52,30.93,0,16.64-8.81,26.43-23.88,33.28,3.13,6.07,11.35,18.6,17.42,26.82,9.4,11.55,23.1,28.38,33.08,30.73l-.59,2.54c-17.81,0-27.21-.98-56.76-49.33-4.89-7.05-10.77-7.24-27.4-7.24v32.49c0,15.46,1.57,18.79,18.4,19.57v2.74h-47.96v-2.74ZM2103.02,336.23c11.35,0,18.59-1.57,23.88-5.87,6.46-5.09,10.18-12.92,10.18-24.08,0-20.94-13.51-29.95-33.86-29.95-5.29,0-8.61.2-10.37.39-.98,0-1.76.59-1.76,4.31v55.2h11.94Z"/>
    <path class="cls-1" d="M2270.96,300.8c-3.33-11.35-8.03-26.82-27.01-26.82-14.09,0-21.14,9.2-21.14,21.92,0,16.44,11.94,22.9,24.66,29.36,8.61,4.31,32.69,12.72,32.69,37.19,0,20.36-15.66,35.04-40.32,35.43-8.03-.39-14.88-1.57-19.77-3.13-4.7-1.57-7.24-2.94-8.42-3.72-1.57-5.09-3.52-19.18-4.7-30.93h3.13c3.13,10.57,11.55,32.69,34.45,32.69,15.07,0,24.27-8.22,24.27-25.45,0-19.77-16.05-26.43-26.42-32.3-1.76-.98-30.54-10.18-30.54-34.06,0-16.25,13.31-31.51,36.41-31.51,6.46,0,12.14.59,22.9,4.11.78,6.65,1.76,13.9,3.13,27.21h-3.33Z"/>
    <path class="cls-1" d="M2393.69,392.21c11.16-1.57,15.27-2.74,15.27-7.44,0-5.09-5.87-20.36-13.12-38.36h-45.22c-1.96,3.72-11.74,30.14-11.74,36.21,0,6.66,5.29,7.83,16.25,9.59v2.74h-44.43v-2.74c13.7-2.74,16.25-4.5,23.49-22.12l42.47-99.63,2.35-.98,13.11,36.21c9,24.47,17.81,48.94,25.25,67.73,5.87,14.48,7.44,16.64,21.14,18.79v2.74h-44.83v-2.74ZM2374.7,287.68c-7.83,17.42-15.46,36.02-21.73,52.46h41.1l-18.99-52.46h-.39Z"/>
    <path class="cls-1" d="M2468.07,392.21c17.42-.78,18.99-4.11,18.99-19.57v-78.49c0-15.46-1.57-17.62-18.01-18.79v-2.94h46.19c19.38,0,40.52,5.87,40.52,30.93,0,16.64-8.81,26.43-23.88,33.28,3.13,6.07,11.35,18.6,17.42,26.82,9.4,11.55,23.1,28.38,33.08,30.73l-.59,2.54c-17.81,0-27.21-.98-56.76-49.33-4.89-7.05-10.77-7.24-27.4-7.24v32.49c0,15.46,1.57,18.79,18.4,19.57v2.74h-47.96v-2.74ZM2509.57,336.23c11.35,0,18.6-1.57,23.88-5.87,6.46-5.09,10.18-12.92,10.18-24.08,0-20.94-13.51-29.95-33.86-29.95-5.29,0-8.61.2-10.37.39-.98,0-1.76.59-1.76,4.31v55.2h11.94Z"/>
    <path class="cls-1" d="M2637.38,392.21c19.18-.78,20.75-4.11,20.75-18.99v-28.19c0-2.15-.39-4.31-5.29-12.53-6.66-9.98-14.09-23.49-25.05-41.3-7.83-11.94-10.18-15.46-21.14-16.05v-2.74h42.28v2.74c-10.38,1.37-13.9,3.33-13.9,6.66,0,1.57.78,3.52,2.15,5.68,8.42,14.09,19.57,33.08,28.77,46.98,5.87-9.59,28.19-46.39,28.19-52.46,0-4.11-4.5-5.48-15.86-6.85v-2.74h43.45v2.74c-13.51,1.57-15.85,7.05-24.66,19.38-7.05,9.2-15.07,22.51-24.66,39.15-3.72,5.87-3.92,8.03-4.11,9.98v29.56c0,14.88,1.57,18.2,21.92,18.99v2.74h-52.85v-2.74Z"/>
    <path class="cls-1" d="M2812.18,392.21c16.83-.78,18.4-4.11,18.4-19.57v-77.9c0-15.66,0-18.6-17.22-19.38v-2.94h46.39c12.33,0,42.67,1.57,42.67,34.06,0,28.58-27.21,40.32-45.61,38.37l-15.66-4.31v32.49c0,15.27,1.37,18.01,21.33,19.18v2.74h-50.3v-2.74ZM2841.15,336.23c2.15.98,7.44,2.94,16.64,2.94,17.42,0,31.71-9,31.71-31.71,0-21.34-12.33-31.12-36.41-31.12-5.29,0-8.22,0-9.98.39-1.37.2-1.96.78-1.96,4.89v54.61Z"/>
    <path class="cls-1" d="M2937.65,392.21c17.42-.78,18.99-4.11,18.99-19.57v-78.49c0-15.46-1.57-17.62-18.01-18.79v-2.94h46.19c19.38,0,40.52,5.87,40.52,30.93,0,16.64-8.81,26.43-23.88,33.28,3.13,6.07,11.35,18.6,17.42,26.82,9.4,11.55,23.1,28.38,33.08,30.73l-.59,2.54c-17.81,0-27.21-.98-56.76-49.33-4.89-7.05-10.77-7.24-27.4-7.24v32.49c0,15.46,1.57,18.79,18.4,19.57v2.74h-47.96v-2.74ZM2979.14,336.23c11.35,0,18.6-1.57,23.88-5.87,6.46-5.09,10.18-12.92,10.18-24.08,0-20.94-13.51-29.95-33.86-29.95-5.29,0-8.61.2-10.37.39-.98,0-1.76.59-1.76,4.31v55.2h11.94Z"/>
    <path class="cls-1" d="M3215.2,331.92c0,38.95-31.12,65.96-68.31,65.96s-64.79-26.42-64.79-62.64c0-32.88,25.45-65.77,69.1-65.77,32.69,0,64.01,24.47,64.01,62.44ZM3095.8,329.57c0,38.17,24.08,63.62,55.79,63.62,26.43,0,50.31-18.2,50.31-53.05,0-44.43-24.86-65.96-56.37-65.96-26.03.2-49.72,17.62-49.72,55.39Z"/>
    <path class="cls-1" d="M3249.46,423.92c17.22-6.66,23.1-17.62,23.1-61.07v-68.12c0-15.27-1.17-18.6-19.18-19.57v-2.74h46.98v2.74c-16.05.98-17.62,4.31-17.62,19.57v75.75c0,39.15-10.96,47.56-32.3,56.57l-.98-3.13Z"/>
    <path class="cls-1" d="M3330.69,392.21c18.4-.98,19.77-4.31,19.77-19.38v-76.73c0-16.83-1.57-20.16-17.81-20.94v-2.74h85.15c0,6.85.98,18.4,1.76,29.95l-3.33.59c-4.11-19.97-7.83-25.84-31.51-25.84h-18.4c-5.29,0-5.48.39-5.48,5.48v45.8h22.9c15.46,0,19.18-1.96,22.12-15.07h3.33v36.41h-3.33c-3.13-15.07-7.24-15.85-22.12-15.85h-22.9v38.17c0,18.4,8.03,18.4,24.27,18.4,11.94,0,23.68-.2,29.95-7.44,3.13-3.72,8.02-10.57,10.96-19.38h3.33c-1.76,7.24-5.48,24.66-7.05,31.32h-91.61v-2.74Z"/>
    <path class="cls-1" d="M3585.93,359.32c-2.74,10.37-7.24,26.42-10.18,33.08-6.26.98-24.66,5.48-39.34,5.48-51.28,0-73.21-32.88-73.01-62.44,0-39.15,32.88-65.96,77.12-65.96,19.18,0,31.51,4.31,37,5.48,1.57,9.79,2.54,19.18,3.72,30.34l-3.33.59c-5.48-22.71-18.79-31.51-44.24-31.51-38.76,0-56.18,25.64-56.18,56.18,0,37.97,22.71,62.64,57.35,62.64,27.21,0,38.37-14.68,47.76-34.84l3.33.98Z"/>
    <path class="cls-1" d="M3643.28,392.21c19.57-.98,20.94-4.31,20.94-19.18v-95.91h-12.14c-25.64,0-28.19,4.31-34.06,24.86h-3.13c1.17-11.55,1.76-23.29,2.15-34.25h3.13c1.37,2.35,2.74,3.52,4.31,4.11,1.57.59,3.52.59,6.26.59h78.88c5.09,0,6.46-.98,9.2-4.7l3.33.2c-.39,9.2.78,21.53,1.76,33.28l-3.33.78c-4.7-22.12-12.14-24.86-28.77-24.86h-17.42v95.91c0,14.88,1.37,18.2,21.73,19.18v2.74h-52.85v-2.74Z"/>
  </g>
  <g>
    <path class="cls-1" d="M126.5,567.43c62.81-36.31,130.39-54.46,202.74-54.46,56.18,0,102.5,12.19,138.94,36.57,36.44,24.39,54.66,55.39,54.66,93.02,0,30.75-11.93,57.98-35.78,81.69-23.85,23.72-56.45,40.88-97.79,51.48,18.29,50.36,43.13,99.38,74.54,147.09s62.87,84.28,94.41,109.72l-5.96,1.99c-39.49,13.52-78.18,32.6-116.08,57.25l-5.96,3.97-1.99-12.72c-16.96-102.56-40.69-189.49-71.16-260.78l-1.59-3.98c-18.29,8.49-42.8,15.24-73.54,20.27l-3.18.4v148.68l69.97,74.74h-205.53l-6.36-10.73h189.23l-57.64-61.22v-160.21l8.35-1.19c30.21-3.18,55.52-9.14,75.93-17.89-1.59-3.18-2.52-5.17-2.78-5.96l-3.98-11.53c-.27-.79-.93-2.39-1.99-4.77-16.44,4.77-47.44,9.94-93.02,15.5l-4.37.79v177.3l45.32,47.31H116.17l51.68-47.31v-133.57l-3.18.4c-15.37,3.45-29.29,7.29-41.74,11.53l-3.18,1.19-3.58-7.95c11.66-4.5,20.8-7.55,27.43-9.14l21.07-5.17,3.18-.8v-20.67c-15.64,0-35.12,3.45-58.44,10.34l-4.37,1.59c.53-3.71,3.18-12.32,7.95-25.84.53-1.06,2.39-7.02,5.57-17.89.26-.79.66-1.99,1.19-3.58,11.93.79,21.2,1.19,27.83,1.19,7.16,0,13.78-.4,19.88-1.19v-195.59c-12.19-7.42-24.78-13.65-37.77-18.68l-3.18-1.19ZM246.56,557.1v214.27c7.68,0,14.97-.66,21.86-1.99v-195.59c14.57-3.98,32.06-5.96,52.47-5.96,51.68,0,86.79,16.96,105.35,50.88-19.62-15.9-36.84-26.83-51.68-32.8-14.85-5.96-32.6-8.94-53.27-8.94-16.17,0-30.35,1.59-42.54,4.77v187.64l4.37-.79c52.21-9.54,90.97-24.58,116.28-45.12,25.31-20.54,37.96-47.24,37.96-80.1,0-29.42-11.4-53.73-34.19-72.95-22.8-19.21-51.55-28.82-86.27-28.82-27.83,0-51.28,5.17-70.36,15.5ZM438.57,795.62c16.7,54.6,46.24,108,88.65,160.21,26.5,32.6,60.03,61.88,100.58,87.85-60.69,16.17-117.67,40.81-170.94,73.94l-3.58,2.38-7.95-6.36c50.62-33.13,104.55-57.51,161.8-73.15-76.33-50.88-136.35-132.24-180.08-244.09l-2.39-6.76c81.1-30.74,121.65-77.65,121.65-140.73,0-25.97-10.47-54.33-31.41-85.07,26.77,24.39,40.15,55.39,40.15,93.02,0,60.96-38.83,107.2-116.48,138.74Z"/>
    <path class="cls-1" d="M1015.23,519.73l-6.36,7.55c-27.03,33.13-48.5,71.16-64.4,114.09-2.65-6.09-4.64-10.6-5.96-13.52-14.58-31.8-30.21-52.34-46.91-61.62-16.7-9.27-46.65-13.91-89.84-13.91-19.88,0-43.73.66-71.56,1.99v182.87h25.44v-161.8c20.14-1.85,39.36-2.78,57.64-2.78,33.65,0,58.44,3.58,74.34,10.73s30.08,21.07,42.54,41.74c-3.71-2.65-6.36-4.63-7.95-5.96-21.47-16.96-36.97-27.03-46.51-30.21-9.54-3.18-28.36-4.77-56.45-4.77-8.48,0-23.59.53-45.32,1.59l-8.35.4v151.06h73.15l51.28-70.36v171.34l-51.28-66.39h-108.53v223.02h25.44v-204.33h86.27l10.34,10.34h-86.66v194c54.06,0,92.49-3.84,115.29-11.53,22.79-7.68,40.68-22.79,53.67-45.32l21.07-36.18c.79-1.59,2.39-4.5,4.77-8.75,6.89,29.16,15.44,52.47,25.64,69.97,10.2,17.49,27.09,37.9,50.69,61.22h-445.64l60.43-46.11v-177.3c-22.26,2.65-42.41,9.54-60.43,20.67l-5.57-8.35c16.16-11.66,38.16-19.21,65.99-22.66v-18.68c-4.51-.53-7.69-.8-9.54-.8-27.03,0-51.68,9.94-73.94,29.82,12.19-42.4,40.01-63.61,83.48-63.61v-169.75l-60.43-47.7h424.17ZM1082.02,1026.59l-20.67,35.78h-434.11l-6.36-10.73h435.3l13.52-25.04c-38.16-35.24-65.07-72.88-80.7-112.9l12.72,4.77c14.57,33.93,39.22,67.85,73.94,101.77l6.36,6.36ZM917.44,679.94v175.71l-9.94-5.17v-175.71l9.94,5.17ZM1034.31,547.56l-2.78,3.58c-32.34,43.47-53.93,79.9-64.8,109.32l-6.76-8.35c17.75-41.08,40.68-78.71,68.77-112.9l5.57,8.35Z"/>
    <path class="cls-1" d="M1295.51,764.39c0,22.8-15.47,37.45-36.64,37.45s-35.82-14.65-35.82-37.45c0-20.35,15.47-36.64,35.82-36.64,22.8,0,36.64,18.73,36.64,36.64ZM1223.86,1034.68c0-20.35,15.47-37.45,35.82-37.45s36.64,17.1,36.64,37.45c0,21.98-15.47,36.64-36.64,36.64-22.8-.81-35.82-16.28-35.82-36.64Z"/>
    <path class="cls-1" d="M1828.75,652.03c-54.55,148.18-103.4,284.95-151.43,419.29h-10.58c-40.71-141.66-88.74-285.77-131.08-426.61-17.1-61.06-30.12-74.09-80.6-80.6v-11.4h176.67v11.4c-42.34,7.33-61.88,12.21-61.88,35.01,0,6.51,1.63,13.84,4.88,22.8,33.38,113.17,72.46,236.92,110.72,362.3h1.63c50.48-146.55,103.4-285.77,153.06-421.73h8.96c43.96,135.96,91.18,270.3,140.85,420.91h1.63c41.52-114.79,102.58-295.54,113.98-353.34,1.63-9.77,3.26-18.73,3.26-25.24,0-26.05-17.1-32.57-59.43-40.71v-11.4h170.16v11.4c-51.29,8.14-59.43,19.54-83.86,78.97-29.31,74.9-76.53,209.24-149.8,428.24h-11.4c-43.15-135.96-112.35-333.8-144.1-419.29h-1.63Z"/>
    <path class="cls-1" d="M2250.49,1062.37v-50.25h150.05v50.25h-150.05ZM2271.14,747.82v-50.25h181.71v50.25h-181.71ZM2420.15,628.74c-12.39,0-23.06-4.42-32.01-13.25-8.95-8.83-13.42-19.44-13.42-31.83s4.47-23.34,13.42-32.18c8.95-8.83,19.62-13.25,32.01-13.25s23.34,4.42,32.18,13.25c8.83,8.83,13.25,19.56,13.25,32.18s-4.42,23-13.25,31.83c-8.84,8.83-19.56,13.25-32.18,13.25ZM2393.65,1062.37v-345.52h59.19v345.52h-59.19ZM2445.96,1062.37v-50.25h123.21v50.25h-123.21Z"/>
    <path class="cls-1" d="M2595.64,1050.97c48.04-3.26,70.83-19.54,77.34-42.33,6.51-24.42,8.96-69.2,8.96-151.43v-176.67c0-72.46-4.07-68.39-18.72-86.3-13.84-16.28-30.94-25.24-74.09-30.12v-11.4h100.14l376.14,429.87h2.44v-232.03c0-158.76-.81-179.93-96.07-186.44v-11.4h201.91v11.4c-47.22,4.07-67.57,19.54-74.9,43.15-7.33,25.24-8.14,66.76-8.14,143.29v317.52h-8.96l-375.32-427.43h-1.63v216.56c.81,82.23,1.63,127.01,7.33,149.8,7.33,25.24,31.75,39.89,86.3,43.96v11.4h-202.72v-11.4Z"/>
    <path class="cls-1" d="M3174.5,1050.97c74.09-3.26,80.6-17.1,80.6-81.41v-324.03c0-63.5-6.51-77.34-73.27-80.6v-12.21h236.92c98.51,0,177.48,16.28,227.15,64.32,43.15,40.71,65.95,97.7,65.95,168.53,0,215.75-187.25,276.81-350.08,276.81h-187.25v-11.4ZM3297.44,967.11c0,62.69,13.03,75.72,94.44,75.72,199.46,0,266.23-129.45,266.23-237.73,0-92.81-37.45-176.67-113.98-212.49-36.63-13.84-88.74-23.61-167.71-23.61-41.52,0-64.32.81-71.65,1.63-4.07,0-7.33.81-7.33,15.47v381.02Z"/>
  </g>
</svg>